<?xml version="1.0" encoding="UTF-8"?>
<svg width="200px" height="64px" viewBox="0 0 200 64" version="1.1" xmlns="http://www.w3.org/2000/svg" xmlns:xlink="http://www.w3.org/1999/xlink">
    <title>informatio</title>
    <g id="Page-1" stroke="none" stroke-width="1" fill="none" fill-rule="evenodd">
        <g id="lomotif-logo-combination-372eeb1fae9264e07b4876ea45fa649b-(2)" transform="translate(80.000002, 9.000973)" fill="#F81C46">
            <path d="M83.6579978,15.2259268 C81.7339978,15.2508268 78.5049978,15.6180268 78.6119978,13.5632268 C78.7049978,11.7975268 81.8979978,11.8994268 83.8129978,11.9197268 C83.7869978,9.85362685 83.6879978,7.74962685 84.8179978,6.83502685 C86.4729978,5.49572685 89.7459978,5.92802685 90.3479978,7.97572685 C90.6649978,9.05302685 90.1679978,10.3418268 90.0379978,11.3589268 C91.9099978,11.3358268 95.7049978,10.9014268 95.2779978,13.1958268 C94.9519978,14.9480268 91.8979978,14.8432268 89.8069978,14.8391268 C89.5729978,17.7683268 88.6179978,35.7671268 90.2899978,36.5313268 C90.8139978,36.7709268 91.3009978,35.7891268 91.4689978,35.5261268 C92.8949978,33.3059268 93.8849978,30.6044268 94.8719978,27.9859268 C95.2139978,27.0451268 95.5549978,26.1041268 95.8969978,25.1633268 C96.2139978,23.2827268 95.5219978,21.2239268 96.1679978,19.7691268 C96.5289978,18.9542268 97.3939978,18.3962268 98.4099978,18.2419268 C100.297998,17.9556268 101.938998,19.1805268 102.257998,20.5620268 C102.696998,22.4678268 99.9539978,34.7829268 102.643998,35.2942268 C104.056998,35.5628268 106.744998,26.8585268 107.071998,25.0089268 C107.116998,21.5289268 107.161998,18.0483268 107.206998,14.5686268 C105.502998,14.5939268 102.366998,14.8035268 102.682998,12.8285268 C102.940998,11.2118268 105.528998,11.2357268 107.438998,11.2625268 C108.099998,5.70092685 108.611998,1.20072685 113.780998,0.126296847 C115.633998,-0.259083153 117.141998,0.281556847 118.168998,1.15092685 C120.537998,3.15622685 120.848998,7.73952685 117.666998,9.11632685 C117.099998,9.36152685 116.151998,9.61602685 115.384998,9.36772685 C113.669998,8.81232685 116.890998,3.06912685 114.785998,2.77502685 C112.998998,2.52522685 112.975998,8.76512685 112.987998,10.8177268 C114.876998,10.4612268 119.703998,10.1524268 119.270998,12.5384268 C118.927998,14.4298268 115.074998,14.2226268 112.929998,14.2785268 C112.917998,21.0379268 112.841998,27.5936268 113.509998,34.0567268 C113.698998,35.8804268 114.114998,39.7569268 113.548998,41.2490268 C113.049998,42.5629268 108.526998,46.2064268 107.303998,43.4140268 C106.502998,41.5865268 107.615998,36.9752268 107.109998,34.7333268 C105.853998,38.1370268 101.321998,42.1081268 97.8499978,38.0009268 C97.0239978,37.0236268 96.7429978,35.8757268 96.2259978,34.5401268 C96.2189978,34.5401268 96.2129978,34.5401268 96.2059978,34.5401268 C94.8149978,38.6345268 88.1549978,46.2378268 84.8569978,38.7935268 C82.1829978,32.7578268 83.6529978,22.9267268 83.6579978,15.2259268 Z M4.3894978,3.00632685 C9.6099978,2.92512685 7.8500978,8.02522685 7.3282978,11.9965268 C6.7361978,16.5023268 4.8916978,38.1304268 7.1156978,40.8806268 C8.4335978,42.5111268 10.5574978,35.2381268 10.9436978,34.0950268 C13.0229978,27.9408268 14.9185978,14.8984268 24.8259978,19.0530268 C33.3399978,22.6241268 31.6509978,38.7640268 21.7129978,39.8369268 C17.4589978,40.2960268 15.8345978,38.0076268 14.0757978,35.7767268 C12.6065978,39.8938268 11.0635978,45.8495268 6.1296978,46.4296268 C4.6919978,46.5988268 3.6519978,45.9830268 3.0361978,45.2503268 C-1.0034022,40.4422268 -0.151502203,25.0939268 0.754797797,16.9846268 C1.0415978,14.4190268 0.987097797,5.64302685 2.0115978,4.24372685 C2.5579978,3.49702685 3.3521978,3.28762685 4.3894978,3.00632685 Z M39.2479978,16.0571206 C40.0309978,16.0559268 40.9009978,16.2286268 41.1229978,16.8500268 C41.4049978,17.6344268 40.7519978,19.0873268 40.5819978,19.8272268 C39.9089978,22.7692268 39.5439978,25.8321268 39.0549978,28.9915268 C38.9389978,30.0610268 38.8229978,31.1310268 38.7069978,32.2005268 C39.6859978,28.1341268 41.6929978,22.3709268 45.9379978,21.5865268 C46.9369978,21.4019268 47.9329978,21.5486268 48.5279978,22.0312268 C49.5659978,22.8709268 48.0269978,27.1890268 48.1999978,28.9138268 C49.1939978,26.3099268 50.4959978,24.0112268 51.7959978,21.7025268 C52.4179978,20.5988268 52.9499978,19.1759268 53.8839978,18.3771268 C54.7469978,17.6387268 55.7319978,17.0968268 57.1709978,16.9271268 C58.1699978,16.8095268 59.1119978,17.1404268 59.5299978,17.6810268 C60.4889978,18.9242268 59.0009978,30.2730268 58.6789978,32.4522268 C58.5309978,33.4508268 58.0169978,35.5167268 58.5429978,36.4154268 C59.8609978,36.6498268 61.6519978,31.8202268 62.1199978,30.5769268 C64.1379978,25.2208268 64.6009978,17.0971268 71.3999978,16.5792268 C73.2149978,16.4409268 74.7789978,16.8305268 75.9049978,17.4684268 C78.1579978,18.7451268 79.6239978,20.9077268 80.3519978,23.7133268 C83.5469978,36.0222268 68.4349978,43.0340268 64.3239978,33.0515268 C64.3109978,33.0645268 64.2979978,33.0773268 64.2849978,33.0903268 C63.4839978,35.6497268 59.2939978,42.6352268 55.2179978,40.2052268 C52.4879978,38.5776268 52.6719978,33.0666268 53.2069978,29.1653268 C53.3879978,28.0185268 53.5679978,26.8712268 53.7479978,25.7239268 C53.7419978,25.7177268 53.7359978,25.7112268 53.7289978,25.7047268 C53.7099978,25.7112268 53.6899978,25.7177268 53.6709978,25.7239268 C51.1959978,28.3857268 49.0469978,39.6289268 44.5069978,39.1028268 C42.5299978,38.8739268 43.1939978,31.2148268 43.0179978,28.9724268 C43.0119978,28.9658268 43.0049978,28.9593268 42.9989978,28.9528268 C42.3369978,29.3728268 42.1509978,30.5068268 41.8769978,31.3116268 C41.2519978,33.3349268 40.6269978,35.3587268 40.0019978,37.3824268 C39.6949978,38.5540268 39.6119978,40.3448268 38.9389978,41.2101268 C38.4299978,41.8636268 37.5709978,42.1557268 36.5219978,42.2734268 C35.4809978,42.3910268 34.5129978,42.0384268 33.9119978,41.5775268 C32.6279978,40.5934268 33.4259978,35.5076268 33.1959978,33.2254268 C33.1959978,30.9119268 33.1959978,28.5981268 33.1959978,26.2848268 C33.6629978,19.8783268 33.4439978,17.3733268 39.2479978,16.0571206 Z M71.4969978,19.7497496 C67.9429978,20.9128268 69.1229978,34.4144268 73.3149978,33.6894268 C76.9719978,33.0564268 75.3819978,19.7127268 71.4969978,19.7497496 Z M21.2099978,21.6247268 C17.5609978,22.9414268 18.4769978,36.6072268 22.6789978,35.9508268 C26.1249978,35.4132268 25.2839978,21.5818268 21.2099978,21.6247268 Z" id="Shape"></path>
        </g>
        <g id="Group" transform="translate(0.000000, 0.000000)" fill="#F81C46" fill-rule="nonzero">
            <path d="M19.7121,64 C19.4371,63.9692 19.1616,63.94 18.8869,63.9076 C16.9928,63.6846 15.2859,62.9922 13.7836,61.8194 C11.7281,60.2143 10.4441,58.1214 9.93443,55.5583 C9.81796,54.9788 9.75712,54.3895 9.75272,53.7984 C9.75,53.2666 9.75272,52.7344 9.75272,52.2026 C9.75272,43.6417 9.75182,35.0807 9.75,26.5197 C9.75,25.1162 9.97256,23.7613 10.5161,22.4693 C11.7199,19.6086 13.7804,17.6462 16.6975,16.5821 C17.8173,16.1739 18.9795,16 20.1681,16 L43.3218,16 C45.9376,16 48.2515,16.848 50.2188,18.5783 C52.1276,20.2571 53.2727,22.3699 53.6388,24.892 C53.7105,25.4016 53.7457,25.9158 53.7443,26.4304 C53.7505,35.473 53.7516,44.5153 53.7478,53.5571 C53.7478,56.3837 52.7606,58.8232 50.802,60.8506 C49.2106,62.4982 47.266,63.4928 45.0046,63.8526 C44.6809,63.9045 44.3521,63.9232 44.0261,63.9595 C43.9428,63.9684 43.8611,63.986 43.7786,63.9984 L19.7121,64 Z M14.2793,39.9686 L14.2793,53.4417 C14.2793,54.4117 14.435,55.3466 14.8945,56.2051 C16.017,58.3105 17.7799,59.4283 20.165,59.4337 C27.8911,59.4528 35.6176,59.4415 43.3436,59.4392 C43.5879,59.4408 43.832,59.4263 44.0743,59.3959 C46.0874,59.1292 47.5804,58.0914 48.5546,56.3135 C49.0437,55.4211 49.2291127,54.4503 49.2285,53.4366 C49.2267,44.5801 49.2267,35.7236 49.2285,26.8671 C49.2285,26.6815 49.2309,26.4956 49.2262,26.31 C49.2079,25.5341 49.0787,24.7766 48.7484,24.0728 C47.6788,21.7932 45.8785,20.5577 43.365,20.5479 C35.6222,20.5179 27.8794,20.5366 20.1366,20.5386 C19.9176,20.5375 19.6988,20.5506 19.4814,20.5776 C17.3333,20.8528 15.7851,21.9772 14.8272,23.9149 C14.4163,24.7473 14.2797,25.6429 14.2825,26.5685 C14.2845,31.0357 14.2835,35.5024 14.2793,39.9686 Z" id="Shape"></path>
            <path d="M33.0199,0.000782066 C33.0938,0.0175194 33.1687,0.0294063 33.2442,0.036366 C35.686,0.0942389 38.0798,0.498176 40.4544,1.03311 C42.7988,1.56139 45.0697,2.30709 47.2413,3.34333 C49.2805,4.31661 51.1885,5.50105 52.9928,6.8552 C54.34,7.86602 55.6133,8.95895 56.7669,10.188 C59.1171,12.6929 60.8995,15.5522 62.1476,18.7434 C62.8342,20.4983 63.3573,22.3018 63.6645,24.1604 C63.8051,25.0101 63.8801,25.8735 63.9339,26.7337 C63.9881,27.6034 63.9932,28.4766 63.9944,29.3486 C64,33.5397 64.0016,37.7308 63.9979,41.9218 L63.9979,42.2018 L60.2856,42.2018 L60.2856,42.5577 C60.2785,45.334 60.2801,48.1103 60.2604,50.8894 C60.2522,52.0406 59.7074,52.9079 58.7232,53.4988 C58.1879,53.8198 57.594,53.968 56.9742,53.9907 C56.457,54.0091 55.9389,53.9946 55.4268,53.9946 C55.3663,53.8049 55.3451,30.0423 55.3993,29.663 C55.413,29.654 55.4264,29.6372 55.4385,29.6372 C56.3395,29.616 57.2409,29.5945 58.1325,29.7654 C58.6611,29.8667 59.1387,30.0716 59.5283,30.4532 C59.5546,30.4727 59.5826,30.4897 59.612,30.5041 C59.6225,30.4363 59.6294,30.3681 59.6324,30.2996 C59.6301,28.877 59.6132,27.4552 59.4961,26.0373 C59.372,24.5365 59.035,23.0807 58.5794,21.6487 C57.3619,17.8166 55.3427,14.4686 52.4269,11.6723 C50.9586,10.2696 49.3242,9.05013 47.5598,8.04081 C44.9523,6.53963 42.1712,5.46664 39.2495,4.75261 C38.2334,4.50431 37.1957,4.37253 36.162,4.21651 C34.7371,4.00183 33.2988,3.98658 31.8656,3.90055 C31.0742,3.85324 30.2852,3.93496 29.4993,4.02334 C28.68,4.11562 27.8619,4.21885 27.0426,4.30801 C25.3478,4.49766 23.7029,4.9059 22.0836,5.43966 C19.7773,6.20139 17.5669,7.17311 15.4959,8.44709 C10.9446,11.2504 7.64661,15.1072 5.68478,20.0772 C5.08622,21.5944 4.68561,23.1663 4.43267,24.777 C4.13221,26.6931 4.08626,28.6189 4.10983,30.5506 C4.10983,30.5897 4.11847,30.6288 4.12711,30.7039 C5.36076,29.8393 6.74012,29.6211 8.17251,29.6215 C8.17251,29.7835 8.19843,53.5664 8.19843,53.9653 C8.16902,53.9769 8.13829,53.9849 8.10692,53.9891 C6.63604,54.02 5.35055,53.559 4.28028,52.5423 C3.67858,51.971 3.44528,51.2809 3.40836,50.4316 C3.40836,49.8316 3.40679,49.2514 3.40836,48.6589 C3.41307,46.6016 3.41307,44.5441 3.40836,42.4865 L3.40836,42.2128 C2.82786,42.1799 2.26936,42.2018 1.71243,42.1979 C1.1555,42.194 0.593072002,42.1979 0.0180745016,42.1979 C0.0110049016,42.0986 0.00157870164,42.0251 0.00157870164,41.952 C0.00157870164,37.8879 -0.00666920836,33.8236 0.0145397016,29.7596 C0.0212166016,28.482 0.0891637016,27.2038 0.168108002,25.9274 C0.330317002,23.2989 1.02,20.7959 2.03606,18.3731 C3.39108,15.1424 5.26925,12.253 7.70238,9.72459 C9.6752,7.67441 11.9163,5.96442 14.3962,4.56648 C17.4597,2.83968 20.7196,1.62631 24.1574,0.890773 C25.5045,0.602973 26.8619,0.372263 28.2342,0.249479 C29.2318,0.161888 30.2349,0.107925 31.2349,0.036366 C31.3185,0.0305006 31.4014,0.012513 31.4846,0 L33.0199,0.000782066 Z" id="Path"></path>
            <path d="M32.0124,28.9999791 C38.0846,29.0132 43.0095,33.9509 43.0000137,40.0093 C42.9886,46.1621 37.9567,51.0289 31.9481,51.0000289 C25.9001,50.9708 20.9693,46.0148 20.9999565,39.9553 C21.031,33.8958 25.9567,28.9883 32.0124,28.9999791 Z" id="Path"></path>
        </g>
    </g>
</svg>