<svg id="SvgjsSvg1039" width="288" height="288" xmlns="http://www.w3.org/2000/svg" version="1.1" xmlns:xlink="http://www.w3.org/1999/xlink" xmlns:svgjs="http://svgjs.com/svgjs"><defs id="SvgjsDefs1040"></defs><g id="SvgjsG1041"><svg xmlns="http://www.w3.org/2000/svg" viewBox="0 0 64 64" width="288" height="288"><path fill="#f4fa9c" d="M57,38.33C57,50.76,45.81,57,32,57S7,50.76,7,38.33a27,27,0,0,1,5.81-16,27,27,0,0,1,11.07-8.71,21,21,0,0,1,16.24,0,27,27,0,0,1,11.07,8.71A27,27,0,0,1,57,38.33Z" class="colord8d9dd svgShape"></path><path fill="#ba53de" d="M23.88 13.63a27 27 0 0 0-11.07 8.71 8 8 0 1 1 11.07-8.71zM56 15a8 8 0 0 1-4.81 7.34 27 27 0 0 0-11.07-8.71A8 8 0 0 1 56 15zM18.74 40a5.66 5.66 0 0 1-5.6-7c1-4.83 7.55-8 11.21-8C31.48 25 27.4 40 18.74 40zM45.26 40a5.66 5.66 0 0 0 5.6-7c-1-4.83-7.55-8-11.21-8C32.52 25 36.6 40 45.26 40z" class="color434347 svgShape"></path><circle cx="23.5" cy="30.5" r="1.5" fill="#f469a9" class="color2d2d2d svgShape"></circle><circle cx="40.5" cy="30.5" r="1.5" fill="#f469a9" class="color2d2d2d svgShape"></circle><path fill="#ba53de" d="M32,50a1,1,0,0,1-1-1V43a1,1,0,0,1,2,0v6A1,1,0,0,1,32,50Z" class="color434347 svgShape"></path><path fill="#ba53de" d="M37,50H27a1,1,0,0,1,0-2H37a1,1,0,0,1,0,2Z" class="color434347 svgShape"></path><path fill="#88bef5" d="M32,43.38h0l-2.23-1.12A1.4,1.4,0,0,1,29,41h0a1.39,1.39,0,0,1,1.39-1.39h3.22A1.39,1.39,0,0,1,35,41h0a1.4,1.4,0,0,1-.77,1.24Z" class="color3e2c27 svgShape"></path></svg></g></svg>